<svg width="40" height="40" viewBox="0 0 40 40" fill="none" xmlns="http://www.w3.org/2000/svg">
<g id="24 Hour Food Delivery">
<path id="Vector" d="M20 10.8333V20.4883L13.5767 26.91C13.4202 27.0665 13.3323 27.2787 13.3323 27.5C13.3323 27.7213 13.4202 27.9335 13.5767 28.09C13.7332 28.2465 13.9454 28.3344 14.1667 28.3344C14.388 28.3344 14.6002 28.2465 14.7567 28.09L21.4233 21.4233C21.5007 21.3458 21.562 21.2538 21.6037 21.1526C21.6455 21.0513 21.6669 20.9428 21.6667 20.8333V10.8333C21.6667 10.6123 21.5789 10.4004 21.4226 10.2441C21.2663 10.0878 21.0544 10 20.8333 10C20.6123 10 20.4004 10.0878 20.2441 10.2441C20.0878 10.4004 20 10.6123 20 10.8333ZM34.1667 26.6667H24.1667C23.9457 26.6667 23.7337 26.7545 23.5774 26.9107C23.4211 27.067 23.3333 27.279 23.3333 27.5C23.3333 27.721 23.4211 27.933 23.5774 28.0893C23.7337 28.2455 23.9457 28.3333 24.1667 28.3333H34.1667C34.3877 28.3333 34.5996 28.2455 34.7559 28.0893C34.9122 27.933 35 27.721 35 27.5C35 27.279 34.9122 27.067 34.7559 26.9107C34.5996 26.7545 34.3877 26.6667 34.1667 26.6667Z" fill="#A098AE"/>
<path id="Vector_2" d="M32.5 10C32.279 10 32.067 10.0878 31.9107 10.2441C31.7545 10.4004 31.6667 10.6123 31.6667 10.8333V11.7467C30.3476 10.1531 28.6921 8.87122 26.8191 7.99294C24.9462 7.11465 22.902 6.66173 20.8333 6.66667C18.5036 6.66672 16.2098 7.24134 14.1552 8.33963C12.1006 9.43792 10.3485 11.026 9.05423 12.9631C7.75995 14.9003 6.9634 17.1268 6.73513 19.4453C6.50687 21.7638 6.85394 24.1029 7.74559 26.2553C8.63724 28.4076 10.046 30.3069 11.847 31.7848C13.648 33.2627 15.7856 34.2736 18.0706 34.728C20.3557 35.1823 22.7175 35.0662 24.9468 34.3897C27.1762 33.7133 29.2044 32.4975 30.8517 30.85C31.0086 30.6929 31.0967 30.4798 31.0965 30.2577C31.0963 30.0357 31.008 29.8228 30.8508 29.6658C30.6937 29.5089 30.4806 29.4208 30.2586 29.421C30.0365 29.4212 29.8236 29.5095 29.6667 29.6667C27.8666 31.4703 25.5583 32.6807 23.051 33.1357C20.5438 33.5907 17.9574 33.2685 15.6383 32.2124C13.3193 31.1563 11.3784 29.4166 10.0758 27.2265C8.77317 25.0364 8.17099 22.5006 8.34997 19.9586C8.52894 17.4167 9.4805 14.9902 11.0772 13.0043C12.6738 11.0183 14.8393 9.56779 17.2834 8.84703C19.7276 8.12627 22.3336 8.16971 24.7524 8.97153C27.1712 9.77336 29.2871 11.2953 30.8167 13.3333H29.1667C28.9457 13.3333 28.7337 13.4211 28.5774 13.5774C28.4211 13.7337 28.3333 13.9457 28.3333 14.1667C28.3333 14.3877 28.4211 14.5996 28.5774 14.7559C28.7337 14.9122 28.9457 15 29.1667 15H32.5C32.721 15 32.933 14.9122 33.0893 14.7559C33.2455 14.5996 33.3333 14.3877 33.3333 14.1667V10.8333C33.3333 10.6123 33.2455 10.4004 33.0893 10.2441C32.933 10.0878 32.721 10 32.5 10Z" fill="#A098AE"/>
<path id="Vector_3" d="M29.1666 16.6667C28.9456 16.6667 28.7337 16.7545 28.5774 16.9107C28.4211 17.067 28.3333 17.279 28.3333 17.5V18.4067C27.1462 18.5787 26.0408 19.1117 25.1669 19.9334C24.293 20.7551 23.693 21.8257 23.4483 23C23.3988 23.2424 23.4039 23.4929 23.4633 23.7331C23.5227 23.9733 23.6348 24.1973 23.7915 24.3888C23.9482 24.5803 24.1456 24.7346 24.3693 24.8403C24.5931 24.946 24.8375 25.0005 25.085 25H33.2517C33.4991 25.0005 33.7436 24.946 33.9673 24.8403C34.1911 24.7346 34.3884 24.5803 34.5452 24.3888C34.7019 24.1973 34.814 23.9733 34.8733 23.7331C34.9327 23.4929 34.9378 23.2424 34.8883 23C34.6434 21.8252 34.0429 20.7543 33.1684 19.9326C32.2939 19.1108 31.1877 18.5781 30 18.4067V17.5C30 17.279 29.9122 17.067 29.7559 16.9107C29.5996 16.7545 29.3877 16.6667 29.1666 16.6667Z" fill="#A098AE"/>
</g>
</svg>
