<svg width="40" height="40" viewBox="0 0 40 40" fill="none" xmlns="http://www.w3.org/2000/svg">
<g id="Order Discussion">
<path id="Vector" d="M32.5 16.6667H31.6667V12.5C31.6667 11.837 31.4033 11.2011 30.9344 10.7322C30.4656 10.2634 29.8297 10 29.1667 10H9.16666C8.50362 10 7.86774 10.2634 7.3989 10.7322C6.93006 11.2011 6.66666 11.837 6.66666 12.5V25.8333C6.66666 26.4964 6.93006 27.1323 7.3989 27.6011C7.86774 28.0699 8.50362 28.3333 9.16666 28.3333H10V29.8333C10.0007 30.0802 10.0743 30.3213 10.2117 30.5264C10.3491 30.7315 10.544 30.8914 10.772 30.986C11.0001 31.0806 11.251 31.1057 11.4932 31.058C11.7354 31.0104 11.9581 30.8922 12.1333 30.7183L14.5117 28.3333H16.6667V29.1667C16.6667 29.8297 16.9301 30.4656 17.3989 30.9344C17.8677 31.4033 18.5036 31.6667 19.1667 31.6667H27.155L29.5333 34.045C29.7078 34.2193 29.93 34.3381 30.1719 34.3864C30.4137 34.4347 30.6645 34.4103 30.8926 34.3164C31.1206 34.2225 31.3158 34.0633 31.4536 33.8587C31.5913 33.6541 31.6655 33.4133 31.6667 33.1667V31.6667H32.5C33.163 31.6667 33.7989 31.4033 34.2678 30.9344C34.7366 30.4656 35 29.8297 35 29.1667V19.1667C35 18.5036 34.7366 17.8677 34.2678 17.3989C33.7989 16.9301 33.163 16.6667 32.5 16.6667ZM30 25.8333C30 26.0543 29.9122 26.2663 29.7559 26.4226C29.5996 26.5789 29.3877 26.6667 29.1667 26.6667H14.1667C14.0572 26.6665 13.9487 26.6879 13.8474 26.7296C13.7462 26.7714 13.6542 26.8327 13.5767 26.91L11.6667 28.8217V27.5C11.6667 27.279 11.5789 27.067 11.4226 26.9107C11.2663 26.7545 11.0543 26.6667 10.8333 26.6667H9.16666C8.94565 26.6667 8.73369 26.5789 8.57741 26.4226C8.42113 26.2663 8.33333 26.0543 8.33333 25.8333V12.5C8.33333 12.279 8.42113 12.067 8.57741 11.9107C8.73369 11.7545 8.94565 11.6667 9.16666 11.6667H29.1667C29.3877 11.6667 29.5996 11.7545 29.7559 11.9107C29.9122 12.067 30 12.279 30 12.5V25.8333Z" fill="#A098AE"/>
<path id="Vector_2" d="M18.3333 14.1667C18.1123 14.1667 17.9004 14.2545 17.7441 14.4107C17.5878 14.567 17.5 14.779 17.5 15V16.6667C17.4964 16.954 17.4175 17.2354 17.2713 17.4827C17.1251 17.7301 16.9166 17.9349 16.6667 18.0767V15C16.6667 14.779 16.5789 14.567 16.4226 14.4107C16.2663 14.2545 16.0543 14.1667 15.8333 14.1667C15.6123 14.1667 15.4004 14.2545 15.2441 14.4107C15.0878 14.567 15 14.779 15 15V18.0767C14.75 17.9349 14.5416 17.7301 14.3954 17.4827C14.2492 17.2354 14.1703 16.954 14.1667 16.6667V15C14.1667 14.779 14.0789 14.567 13.9226 14.4107C13.7663 14.2545 13.5543 14.1667 13.3333 14.1667C13.1123 14.1667 12.9004 14.2545 12.7441 14.4107C12.5878 14.567 12.5 14.779 12.5 15V16.6667C12.5028 17.4035 12.7496 18.1187 13.2019 18.7004C13.6542 19.282 14.2865 19.6974 15 19.8817V23.3333C15 23.5543 15.0878 23.7663 15.2441 23.9226C15.4004 24.0789 15.6123 24.1667 15.8333 24.1667C16.0543 24.1667 16.2663 24.0789 16.4226 23.9226C16.5789 23.7663 16.6667 23.5543 16.6667 23.3333V19.8817C17.3801 19.6974 18.0124 19.282 18.4648 18.7004C18.9171 18.1187 19.1639 17.4035 19.1667 16.6667V15C19.1667 14.779 19.0789 14.567 18.9226 14.4107C18.7663 14.2545 18.5543 14.1667 18.3333 14.1667ZM22.04 14.255C21.913 14.1913 21.7717 14.1612 21.6298 14.1675C21.4878 14.1738 21.3498 14.2163 21.2289 14.2909C21.108 14.3656 21.0081 14.4699 20.9389 14.594C20.8697 14.7181 20.8333 14.8579 20.8333 15V23.3333C20.8333 23.5543 20.9211 23.7663 21.0774 23.9226C21.2337 24.0789 21.4457 24.1667 21.6667 24.1667C21.8877 24.1667 22.0996 24.0789 22.2559 23.9226C22.4122 23.7663 22.5 23.5543 22.5 23.3333V22.3183L24.8867 21.72C25.1746 21.6419 25.4264 21.4663 25.5991 21.2231C25.7717 20.9798 25.8545 20.6842 25.8333 20.3867C25.8355 19.1126 25.4815 17.8633 24.8112 16.7798C24.1409 15.6963 23.181 14.8218 22.04 14.255Z" fill="#A098AE"/>
</g>
</svg>
