<svg width="40" height="40" viewBox="0 0 40 40" fill="none" xmlns="http://www.w3.org/2000/svg">
<g id="Restaurant Location">
<path id="Vector" d="M8.33334 30.8333C8.33334 33.6967 14.8133 35 20.8333 35C26.8533 35 33.3333 33.6967 33.3333 30.8333C33.3333 28.56 29.3983 27.5333 26.5633 27.09L28.5 25.1667C30.0152 23.6516 31.047 21.7213 31.4651 19.6198C31.8832 17.5183 31.6687 15.3401 30.8488 13.3605C30.0289 11.3809 28.6403 9.68892 26.8588 8.49849C25.0772 7.30807 22.9827 6.67268 20.84 6.67268C18.6973 6.67268 16.6028 7.30807 14.8212 8.49849C13.0397 9.68892 11.6511 11.3809 10.8312 13.3605C10.0113 15.3401 9.79681 17.5183 10.2149 19.6198C10.633 21.7213 11.6648 23.6516 13.18 25.1667L15.11 27.0967C12.2683 27.5333 8.33334 28.56 8.33334 30.8333ZM22.5 13.3333C22.5 13.1786 22.5431 13.0269 22.6245 12.8952C22.7058 12.7636 22.8222 12.6572 22.9607 12.588C23.0991 12.5188 23.254 12.4895 23.4082 12.5034C23.5623 12.5173 23.7095 12.5738 23.8333 12.6667C24.8653 13.4409 25.7222 14.4242 26.348 15.5523C26.9738 16.6805 27.3544 17.928 27.465 19.2133C27.5016 19.6082 27.3952 20.0031 27.1652 20.3261C26.9351 20.6491 26.5968 20.8788 26.2117 20.9733L24.1667 21.485V23.3333C24.1667 23.5543 24.0789 23.7663 23.9226 23.9226C23.7663 24.0789 23.5543 24.1667 23.3333 24.1667C23.1123 24.1667 22.9004 24.0789 22.7441 23.9226C22.5878 23.7663 22.5 23.5543 22.5 23.3333V13.3333ZM15 15V13.3333C15 13.1123 15.0878 12.9004 15.2441 12.7441C15.4004 12.5878 15.6123 12.5 15.8333 12.5C16.0543 12.5 16.2663 12.5878 16.4226 12.7441C16.5789 12.9004 16.6667 13.1123 16.6667 13.3333V15C16.67 15.2874 16.7487 15.5689 16.8949 15.8163C17.0412 16.0638 17.2498 16.2685 17.5 16.41V13.3333C17.5 13.1123 17.5878 12.9004 17.7441 12.7441C17.9004 12.5878 18.1123 12.5 18.3333 12.5C18.5543 12.5 18.7663 12.5878 18.9226 12.7441C19.0789 12.9004 19.1667 13.1123 19.1667 13.3333V16.41C19.4168 16.2685 19.6255 16.0638 19.7717 15.8163C19.918 15.5689 19.9967 15.2874 20 15V13.3333C20 13.1123 20.0878 12.9004 20.2441 12.7441C20.4004 12.5878 20.6123 12.5 20.8333 12.5C21.0543 12.5 21.2663 12.5878 21.4226 12.7441C21.5789 12.9004 21.6667 13.1123 21.6667 13.3333V15C21.6639 15.7368 21.4171 16.452 20.9648 17.0337C20.5124 17.6154 19.8801 18.0308 19.1667 18.215V23.3333C19.1667 23.5543 19.0789 23.7663 18.9226 23.9226C18.7663 24.0789 18.5543 24.1667 18.3333 24.1667C18.1123 24.1667 17.9004 24.0789 17.7441 23.9226C17.5878 23.7663 17.5 23.5543 17.5 23.3333V18.215C16.7865 18.0308 16.1542 17.6154 15.7019 17.0337C15.2496 16.452 15.0028 15.7368 15 15ZM16.59 28.5767L19.065 31.0533C19.2972 31.2856 19.5728 31.4699 19.8763 31.5957C20.1797 31.7214 20.5049 31.7861 20.8333 31.7861C21.1618 31.7861 21.487 31.7214 21.7904 31.5957C22.0938 31.4699 22.3695 31.2856 22.6017 31.0533L25.0767 28.5767C29.6567 29.1067 31.6667 30.3133 31.6667 30.8333C31.6667 31.58 27.9817 33.3333 20.8333 33.3333C13.685 33.3333 10 31.58 10 30.8333C10 30.3133 12.01 29.1067 16.59 28.5767Z" fill="white"/>
</g>
</svg>
