<svg width="40" height="40" viewBox="0 0 40 40" fill="none" xmlns="http://www.w3.org/2000/svg">
<g id="Setting">
<path id="Process" d="M24.6437 26.3562L24.5687 23.7C25.1312 23.5937 25.9187 22.6437 26.2375 22.1375L25.1625 19.725C24.5687 19.6313 23.3375 19.575 22.8812 19.925L20.9562 18.0938C21.275 17.625 21.1625 16.4 21.025 15.8188L18.5562 14.875C18.075 15.2187 17.1687 16.0563 17.0937 16.625L14.4375 16.6937C14.3312 16.1312 13.375 15.3562 12.875 15.0312L10.4625 16.1062C10.3687 16.7 10.3125 17.9313 10.6625 18.3875L8.8375 20.3125C8.3625 19.9937 7.1375 20.1125 6.55625 20.2437L5.6125 22.7063C5.95625 23.2 6.79375 24.0938 7.35625 24.175L7.43125 26.8312C6.875 26.9438 6.09375 27.8875 5.76875 28.3937L6.85 30.8062C7.4375 30.9 8.66875 30.95 9.125 30.6125L11.05 32.4312C10.7312 32.9 10.85 34.1313 10.9812 34.7125L13.4437 35.6562C13.9312 35.3062 14.8375 34.4688 14.9125 33.9062L17.5687 33.8312C17.6812 34.4 18.625 35.175 19.1375 35.4937L21.5437 34.425C21.6437 33.825 21.6875 32.6 21.35 32.1437L23.1687 30.2125C23.6437 30.5375 24.8687 30.4187 25.4562 30.2875L26.3937 27.8187C26.0437 27.3375 25.2125 26.4375 24.6437 26.3562ZM18.8187 26.3375C18.6061 26.895 18.233 27.3769 17.7465 27.7224C17.2599 28.0678 16.6819 28.2612 16.0855 28.2781C15.4891 28.295 14.901 28.1347 14.3957 27.8174C13.8904 27.5001 13.4905 27.0401 13.2466 26.4955C13.0028 25.951 12.9258 25.3463 13.0256 24.7581C13.1254 24.1698 13.3974 23.6243 13.8071 23.1906C14.2169 22.7569 14.7461 22.4545 15.3278 22.3215C15.9095 22.1886 16.5175 22.2311 17.075 22.4437C17.4455 22.5844 17.7846 22.7969 18.0729 23.0689C18.3612 23.3408 18.5929 23.667 18.7549 24.0288C18.9169 24.3905 19.0059 24.7806 19.0169 25.1768C19.0278 25.5729 18.9605 25.9674 18.8187 26.3375ZM34.375 9.1625C34.0812 8.91875 33.3875 8.4875 33.0437 8.6L31.9875 6.8C32.25 6.55625 32.2125 5.7375 32.1437 5.36875L30.3375 4.34375C29.9812 4.475 29.2625 4.8625 29.1875 5.2125L27.1 5.23125C27.0187 4.88125 26.2937 4.50625 25.9375 4.375L24.15 5.43125C24.0875 5.8 24.0625 6.61875 24.325 6.8625L23.3 8.675C22.95 8.56875 22.2625 9.0125 21.975 9.25625L21.9937 11.3312C22.2875 11.575 22.9812 12 23.325 11.8938L24.3812 13.6938C24.1187 13.9375 24.1562 14.7563 24.225 15.125L26.0312 16.15C26.3812 16.0187 27.1 15.6313 27.1812 15.2812L29.2625 15.2625C29.35 15.6125 30.075 15.9875 30.4312 16.1187L32.2187 15.0625C32.2812 14.6875 32.3062 13.875 32.0375 13.6312L33.0687 11.8187C33.4125 11.9187 34.1 11.4812 34.3875 11.2375L34.375 9.1625ZM28.1812 11.8813C27.8583 11.8806 27.5427 11.7843 27.2744 11.6045C27.0061 11.4247 26.7971 11.1694 26.6738 10.8709C26.5505 10.5724 26.5184 10.244 26.5816 9.92726C26.6447 9.61051 26.8003 9.31958 27.0287 9.0912C27.2571 8.86282 27.548 8.70722 27.8648 8.64406C28.1815 8.5809 28.5099 8.613 28.8084 8.73631C29.1069 8.85963 29.3622 9.06863 29.542 9.33692C29.7218 9.60521 29.8181 9.92077 29.8187 10.2437C29.8192 10.4589 29.7772 10.6721 29.6951 10.871C29.613 11.0699 29.4924 11.2506 29.3402 11.4027C29.1881 11.5549 29.0074 11.6755 28.8085 11.7576C28.6096 11.8397 28.3964 11.8817 28.1812 11.8813Z" fill="#A098AE"/>
</g>
</svg>
